<?xml version="1.0" standalone="no"?>
<!DOCTYPE svg PUBLIC "-//W3C//DTD SVG 20010904//EN"
 "http://www.w3.org/TR/2001/REC-SVG-20010904/DTD/svg10.dtd">
<svg version="1.0" xmlns="http://www.w3.org/2000/svg"
 width="250.000000pt" height="56.000000pt" viewBox="0 0 250.000000 56.000000"
 preserveAspectRatio="xMidYMid meet">

<g transform="translate(0.000000,56.000000) scale(0.100000,-0.100000)"
fill="#000000" stroke="none">
<path d="M120 434 l0 -46 -40 7 c-26 4 -40 3 -40 -4 0 -6 17 -13 37 -17 l38
-6 2 -65 c2 -44 9 -76 23 -100 16 -27 20 -52 20 -119 l0 -84 880 0 880 0 0
104 c0 76 4 107 14 115 10 9 15 8 20 -4 3 -8 14 -15 24 -15 15 0 22 11 30 53
l11 52 -5 -65 c-6 -78 1 -100 30 -100 20 0 21 4 18 90 -3 78 -6 90 -23 95 -26
8 -37 0 -48 -38 -8 -25 -9 -19 -4 28 12 105 10 120 -13 123 -18 3 -22 -4 -28
-44 -3 -26 -6 -63 -6 -83 0 -20 -5 -43 -10 -51 -7 -10 -10 23 -10 103 l0 117
-900 0 -900 0 0 -46z"/>
</g>
</svg>
